<?xml version="1.0" encoding="UTF-8"?>
<svg version="1.1" xmlns="http://www.w3.org/2000/svg" width="64" height="64">
<path d="M0 0 C8.34468007 4.97590182 13.53387008 11.86345977 16.109375 21.2578125 C17.10789012 32.35758522 16.45884702 41.9922991 9.359375 51.0703125 C3.70168013 57.1280464 -3.34488592 60.84888618 -11.625 61.59375 C-22.35447774 61.83515993 -31.19802606 60.58332943 -39.359375 52.9609375 C-46.75303791 44.73737365 -48.47252567 36.02335615 -48.203125 25.24609375 C-47.72879865 16.86039919 -44.11592977 9.8548755 -37.890625 4.2578125 C-27.15195714 -3.81766573 -12.32399863 -5.91386512 0 0 Z " fill="#2F5F87" transform="translate(47.890625,2.7421875)"/>
<path d="M0 0 C4.27070558 -0.08692074 8.54118458 -0.14036515 12.8125 -0.1875 C14.63491211 -0.22520508 14.63491211 -0.22520508 16.49414062 -0.26367188 C18.23920898 -0.27817383 18.23920898 -0.27817383 20.01953125 -0.29296875 C21.09307861 -0.3086792 22.16662598 -0.32438965 23.27270508 -0.34057617 C26 0 26 0 27.85546875 1.37695312 C29.40267595 3.57103024 29.30294614 5.03223889 29.1875 7.6875 C29.14689453 8.89986328 29.14689453 8.89986328 29.10546875 10.13671875 C29.05326172 11.05904297 29.05326172 11.05904297 29 12 C24 12 19 12 14 12 C14.99 12.99 15.98 13.98 17 15 C17.33 14.67 17.66 14.34 18 14 C19.85287502 13.92773498 21.70833878 13.9161878 23.5625 13.9375 C24.57441406 13.94652344 25.58632813 13.95554687 26.62890625 13.96484375 C27.41136719 13.97644531 28.19382813 13.98804688 29 14 C29.086985 17.77068832 29.14038579 21.54111932 29.1875 25.3125 C29.21263672 26.38435547 29.23777344 27.45621094 29.26367188 28.56054688 C29.27333984 29.58857422 29.28300781 30.61660156 29.29296875 31.67578125 C29.3086792 32.62364502 29.32438965 33.57150879 29.34057617 34.5480957 C29 37 29 37 27.95825195 38.80786133 C24.92256313 40.65591875 21.82435975 40.42757844 18.375 40.3984375 C17.2600415 40.40274277 17.2600415 40.40274277 16.12255859 40.40713501 C14.5524011 40.40917476 12.98221814 40.403651 11.41210938 40.39111328 C9.00853668 40.37505703 6.60664539 40.39096352 4.203125 40.41015625 C2.67707962 40.4081738 1.15103529 40.40433009 -0.375 40.3984375 C-1.09381348 40.40451019 -1.81262695 40.41058289 -2.55322266 40.4168396 C-5.38644687 40.37689849 -7.50827264 40.2995679 -9.96044922 38.80566406 C-11.385594 36.33023644 -11.32458694 34.55884312 -11.2578125 31.7109375 C-11.24363281 30.68742187 -11.22945312 29.66390625 -11.21484375 28.609375 C-11.18519531 27.54203125 -11.15554688 26.4746875 -11.125 25.375 C-11.08184552 23.25789195 -11.04256555 21.14070012 -11.0078125 19.0234375 C-10.98348145 18.08419434 -10.95915039 17.14495117 -10.93408203 16.17724609 C-10.75042433 14.02111418 -10.75042433 14.02111418 -12 13 C-12.41221374 4.61832061 -12.41221374 4.61832061 -10 1 C-9.34 1 -8.68 1 -8 1 C-8 4.3 -8 7.6 -8 11 C-5.36 11 -2.72 11 0 11 C0 7.37 0 3.74 0 0 Z " fill="#FCFDFD" transform="translate(23,12)"/>
<path d="M0 0 C4.27070558 -0.08692074 8.54118458 -0.14036515 12.8125 -0.1875 C14.63491211 -0.22520508 14.63491211 -0.22520508 16.49414062 -0.26367188 C18.23920898 -0.27817383 18.23920898 -0.27817383 20.01953125 -0.29296875 C21.09307861 -0.3086792 22.16662598 -0.32438965 23.27270508 -0.34057617 C26 0 26 0 27.85546875 1.37695312 C29.40267595 3.57103024 29.30294614 5.03223889 29.1875 7.6875 C29.14689453 8.89986328 29.14689453 8.89986328 29.10546875 10.13671875 C29.05326172 11.05904297 29.05326172 11.05904297 29 12 C24 12 19 12 14 12 C15.2375 12.7115625 15.2375 12.7115625 16.5 13.4375 C19.20482388 16.20994447 19.44132222 16.76394449 19.625 20.4375 C19.40213683 23.81387707 18.95428832 25.07466242 17.125 28.0625 C12.72930779 30.78782917 9.04149985 31.01823396 4 30 C0.2281548 27.45977773 -0.76465389 25.87862547 -1.9375 21.5 C-2 18 -2 18 0 13 C-3.96 13 -7.92 13 -12 13 C-12.28571429 4.42857143 -12.28571429 4.42857143 -10 1 C-9.34 1 -8.68 1 -8 1 C-8 4.3 -8 7.6 -8 11 C-5.36 11 -2.72 11 0 11 C0 7.37 0 3.74 0 0 Z " fill="#A4B9CA" transform="translate(23,12)"/>
<path d="M0 0 C4.2712088 -0.08070164 8.5409033 -0.14036204 12.8125 -0.1875 C14.63491211 -0.22520508 14.63491211 -0.22520508 16.49414062 -0.26367188 C18.23920898 -0.27817383 18.23920898 -0.27817383 20.01953125 -0.29296875 C21.09307861 -0.3086792 22.16662598 -0.32438965 23.27270508 -0.34057617 C26 0 26 0 27.85546875 1.37695312 C29.40267595 3.57103024 29.30294614 5.03223889 29.1875 7.6875 C29.16042969 8.49574219 29.13335937 9.30398437 29.10546875 10.13671875 C29.05326172 11.05904297 29.05326172 11.05904297 29 12 C26.70839681 12.02692484 24.41670454 12.04636124 22.125 12.0625 C20.84882812 12.07410156 19.57265625 12.08570313 18.2578125 12.09765625 C15 12 15 12 13 11 C8.15582302 10.83852743 3.77125662 11.04574868 -1 12 C-0.67 8.04 -0.34 4.08 0 0 Z " fill="#FAFBFC" transform="translate(23,12)"/>
<path d="M0 0 C2.4375 1.5625 2.4375 1.5625 4 4 C4 7.81153499 3.80074051 10.05097421 1.3125 13 C-1.89970645 14.38906225 -3.6936636 14.05521374 -7 13 C-9.27605184 10.87568495 -9.90218604 9.55893694 -10.4375 6.5 C-9.41545969 0.65976965 -5.50319355 -0.91719892 0 0 Z " fill="#356389" transform="translate(35,25)"/>
<path d="M0 0 C0.66 0 1.32 0 2 0 C2 3.3 2 6.6 2 10 C6.29 10 10.58 10 15 10 C13.35 11.65 11.7 13.3 10 15 C10 14.01 10 13.02 10 12 C6.04 12 2.08 12 -2 12 C-2.28571429 3.42857143 -2.28571429 3.42857143 0 0 Z " fill="#A8BCCC" transform="translate(13,13)"/>
<path d="M0 0 C1.134375 0.020625 2.26875 0.04125 3.4375 0.0625 C3.4375 2.7025 3.4375 5.3425 3.4375 8.0625 C0.7975 8.0625 -1.8425 8.0625 -4.5625 8.0625 C-4.60491723 5.72955225 -4.60342937 3.39547433 -4.5625 1.0625 C-3.5625 0.0625 -3.5625 0.0625 0 0 Z " fill="#3C698D" transform="translate(45.5625,13.9375)"/>
<path d="M0 0 C0.33 0 0.66 0 1 0 C1 2.64 1 5.28 1 8 C-2.96 8 -6.92 8 -11 8 C-11.33 8.99 -11.66 9.98 -12 11 C-12.680625 10.360625 -13.36125 9.72125 -14.0625 9.0625 C-17.46408839 6.6741507 -19.90433701 6.32122847 -24 6 C-24 5.67 -24 5.34 -24 5 C-16.25 4.875 -16.25 4.875 -14 6 C-11.62876754 6.23029956 -9.25258057 6.41119942 -6.875 6.5625 C-5.59367187 6.64628906 -4.31234375 6.73007812 -2.9921875 6.81640625 C-1.51105469 6.90728516 -1.51105469 6.90728516 0 7 C0 4.69 0 2.38 0 0 Z " fill="#7897B0" transform="translate(52,17)"/>
<path d="M0 0 C0.33 0 0.66 0 1 0 C1.185625 1.093125 1.37125 2.18625 1.5625 3.3125 C2.57516528 6.9490498 2.57516528 6.9490498 4.69140625 8.1328125 C6.83650143 9.05926212 6.83650143 9.05926212 10 10 C10 10.66 10 11.32 10 12 C5.87203885 11.7618484 3.65367367 11.60339108 0.5625 8.75 C-1.11001719 5.80636975 -1.46113292 4.32015702 -1 1 C-0.67 0.67 -0.34 0.34 0 0 Z " fill="#F8F9FA" transform="translate(24,29)"/>
<path d="M0 0 C0.66 0.33 1.32 0.66 2 1 C-1.625 5.875 -1.625 5.875 -5 7 C-3.70700306 4.11562221 -2.34058637 2.12780579 0 0 Z " fill="#E6ECF0" transform="translate(28,23)"/>
</svg>
