<?xml version="1.0" encoding="UTF-8"?>
<svg version="1.1" xmlns="http://www.w3.org/2000/svg" width="64" height="64">
<path d="M0 0 C19.47 0 38.94 0 59 0 C59 19.47 59 38.94 59 59 C39.53 59 20.06 59 0 59 C0 39.53 0 20.06 0 0 Z M31.0625 20.25 C29.83437629 22.12680722 29.83437629 22.12680722 29 25 C28.45730469 24.79503906 27.91460937 24.59007812 27.35546875 24.37890625 C26.64003906 24.10949219 25.92460937 23.84007812 25.1875 23.5625 C24.47980469 23.29566406 23.77210937 23.02882813 23.04296875 22.75390625 C21.37327604 22.13774814 19.68842296 21.56280765 18 21 C18.165 21.7425 18.33 22.485 18.5 23.25 C19 26 19 26 19 30 C20.79910077 33.68118734 20.79910077 33.68118734 24 36 C22.02 36.99 22.02 36.99 20 38 C20 38.66 20 39.32 20 40 C24.95618861 40.35261421 28.82917054 40.5637327 33.375 38.375 C38.68946631 33.56667334 40.73640837 28.892318 42 22 C41.67 21.34 41.34 20.68 41 20 C35.80772949 18.66405633 35.80772949 18.66405633 31.0625 20.25 Z " fill="#588DC9" transform="translate(2,3)"/>
</svg>
